Coordinates
version=1
nRows=35
nColumns=33
inDegrees=yes

Units are S.I. units (second, meters, Newtons, ...)
Angles are in degrees.

endheader
time	ground_thorax_rot_x	ground_thorax_rot_y	ground_thorax_rot_z	ground_thorax_tx	ground_thorax_ty	ground_thorax_tz	clav_prot_r	clav_elev_r	scapula_abduction_r	scapula_elevation_r	scapula_upward_rot_r	scapula_winging_r	shoulder_elv_r	plane_of_elev_r	axial_rot_r	elbow_flexion_r	pro_sup_r	wrist_flex_r	wrist_dev_r	clav_prot_l	clav_elev_l	scapula_abduction_l	scapula_elevation_l	scapula_upward_rot_l	scapula_winging_l	shoulder_elv_l	plane_of_elev_l	axial_rot_l	elbow_flexion_l	pro_sup_l	wrist_flex_l	wrist_dev_l	
3.0300	39.117135	7.707347	9.908439	-247.340004	849.733916	6.532649	12.051540	39.285992	37.231705	45.000000	-32.092558	2069.535969	67.489583	33.192646	51.825337	2181.701424	111.699639	11.827133	1.959205	9.303398	-45.000000	-38.661775	45.000000	-45.000000	98.425443	268.036412	136.337967	-180.000000	1091.479784	47.965704	3.942585	-23.693107	
3.0400	39.118371	7.737267	9.957630	-247.237105	849.456608	6.461583	12.107870	39.269237	37.227199	45.000000	-32.168553	2069.574317	67.460395	33.218431	51.777247	2181.660368	111.716126	11.802517	2.009366	9.327586	-45.000000	-38.643077	45.000000	-45.000000	98.401721	268.041812	136.342212	-180.000000	1091.502729	47.924398	3.987756	-23.611458	
3.0500	39.107348	7.767034	10.020319	-247.116787	849.183722	6.391419	12.191167	39.241724	37.181154	45.000000	-32.248713	2069.637382	67.411438	33.293279	51.753502	2181.567741	111.742156	11.775284	2.089312	9.364070	-45.000000	-38.586495	45.000000	-45.000000	98.357067	268.085104	136.366422	-180.000000	1091.532271	47.886698	4.069324	-23.443068	
3.0600	39.114546	7.801432	10.063787	-246.955988	848.915056	6.321343	12.237446	39.230612	37.163584	45.000000	-32.283240	2069.660687	67.389146	33.325549	51.720989	2181.560008	111.789836	11.755193	2.124218	9.380000	-45.000000	-38.563361	45.000000	-45.000000	98.325688	268.101645	136.373272	-180.000000	1091.562647	47.835242	4.101987	-23.374987	
3.0700	39.134213	7.831569	10.089644	-246.754085	848.654371	6.252534	12.261218	39.230860	37.176151	45.000000	-32.285741	2069.667667	67.371201	33.326438	51.683729	2181.575519	111.860358	11.736426	2.142338	9.389056	-45.000000	-38.562743	45.000000	-45.000000	98.305834	268.100907	136.362735	-180.000000	1091.593312	47.775760	4.117573	-23.349053	
3.0800	39.159016	7.864155	10.110517	-246.507232	848.404862	6.185922	12.277647	39.236066	37.182444	45.000000	-32.261911	2069.671982	67.362869	33.330618	51.654733	2181.601930	111.953236	11.726232	2.148317	9.390916	-45.000000	-38.568583	45.000000	-45.000000	98.273899	268.099035	136.361197	-180.000000	1091.620403	47.709414	4.123189	-23.339134	
3.0900	39.192220	7.888442	10.116673	-246.216482	848.168709	6.122495	12.275975	39.250517	37.219348	45.000000	-32.210746	2069.670606	67.350090	33.307621	51.615323	2181.626349	112.066615	11.715180	2.147404	9.393882	-45.000000	-38.594480	45.000000	-45.000000	98.256451	268.083094	136.338613	-180.000000	1091.641917	47.637442	4.123965	-23.351245	
3.1000	39.222230	7.917145	10.127666	-245.884443	847.946634	6.063166	12.279393	39.263369	37.231748	45.000000	-32.147670	2069.685745	67.340601	33.305671	51.585264	2181.629235	112.194036	11.713889	2.148074	9.397720	-45.000000	-38.617689	45.000000	-45.000000	98.216837	268.075698	136.337211	-180.000000	1091.657740	47.561945	4.132096	-23.343237	
3.1100	39.253149	7.938923	10.129073	-245.511491	847.736293	6.008295	12.264385	39.280643	37.253926	45.000000	-32.059344	2069.704707	67.326109	33.288527	51.537142	2181.628728	112.331590	11.708717	2.144973	9.411482	-45.000000	-38.657970	45.000000	-45.000000	98.197293	268.061830	136.306903	-180.000000	1091.660847	47.482167	4.141060	-23.346751	
3.1200	39.274853	7.973548	10.140322	-245.096286	847.533217	5.957997	12.245214	39.293003	37.235573	45.000000	-31.958211	2069.741701	67.321312	33.292952	51.491628	2181.625093	112.474342	11.714348	2.137364	9.430585	-45.000000	-38.695258	45.000000	-45.000000	98.155570	268.061133	136.295825	-180.000000	1091.658930	47.396147	4.153336	-23.335773	
3.1300	39.293616	8.013511	10.146864	-244.634879	847.330343	5.911893	12.210613	39.309007	37.212067	45.000000	-31.835755	2069.778583	67.316731	33.289001	51.428536	2181.627459	112.620560	11.716761	2.124353	9.459882	-45.000000	-38.746952	45.000000	-45.000000	98.131120	268.065023	136.260881	-180.000000	1091.659076	47.300797	4.165858	-23.331699	
3.1400	39.302761	8.086781	10.168991	-244.122067	847.119564	5.869319	12.171380	39.320496	37.138914	45.000000	-31.704190	2069.831320	67.329981	33.296182	51.365555	2181.635206	112.766970	11.731419	2.102978	9.491636	-45.000000	-38.802068	45.000000	-45.000000	98.081480	268.090968	136.253186	-180.000000	1091.673177	47.192053	4.176137	-23.320014	
3.1500	39.306768	8.170147	10.186529	-243.551208	846.892347	5.829272	12.111624	39.332605	37.049204	45.000000	-31.550065	2069.885650	67.346817	33.300281	51.278873	2181.653945	112.912345	11.741759	2.076921	9.538311	-45.000000	-38.872914	45.000000	-45.000000	98.051646	268.130138	136.218595	-180.000000	1091.698904	47.068210	4.187265	-23.312334	
3.1600	39.305842	8.269530	10.214429	-242.915404	846.640844	5.790567	12.046293	39.341144	36.950756	45.000000	-31.395520	2069.943618	67.375567	33.305435	51.188202	2181.684350	113.053051	11.764732	2.040716	9.587363	-45.000000	-38.939854	45.000000	-45.000000	98.001430	268.183034	136.204166	-180.000000	1091.742073	46.924237	4.196791	-23.300911	
3.1700	39.306228	8.361105	10.233451	-242.207177	846.358310	5.751929	11.977492	39.354117	36.871669	45.000000	-31.227757	2069.989490	67.399038	33.309876	51.077800	2181.721276	113.186416	11.784101	2.001412	9.638908	-45.000000	-39.011552	45.000000	-45.000000	97.967429	268.238262	136.161926	-180.000000	1091.791850	46.758798	4.211252	-23.292602	
3.1800	39.316815	8.433797	10.261113	-241.419550	846.039769	5.712263	11.918771	39.368758	36.865687	45.000000	-31.066659	2070.010151	67.409800	33.302184	50.963850	2181.755703	113.307231	11.814125	1.956850	9.680782	-45.000000	-39.049126	45.000000	-45.000000	97.916668	268.282771	136.127451	-180.000000	1091.837402	46.566970	4.230555	-23.280529	
3.1900	39.337697	8.473077	10.282749	-240.545810	845.681871	5.670779	11.870564	39.391468	36.942166	45.000000	-30.897955	2070.004988	67.397439	33.278432	50.838772	2181.783625	113.409426	11.842344	1.912454	9.707601	-45.000000	-39.068578	45.000000	-45.000000	97.873724	268.309465	136.065224	-180.000000	1091.866529	46.347160	4.262294	-23.269574	
3.2000	39.370783	8.487980	10.320774	-239.580020	845.282610	5.627110	11.847887	39.422561	37.113360	45.000000	-30.736923	2069.965171	67.359198	33.243169	50.719557	2181.800373	113.484146	11.884610	1.863595	9.712604	-45.000000	-39.037923	45.000000	-45.000000	97.805408	268.320474	136.013232	-180.000000	1091.877027	46.093030	4.302349	-23.252571	
3.2100	39.404986	8.505734	10.368551	-238.516747	844.840549	5.581258	11.847392	39.464235	37.305367	45.000000	-30.560661	2069.910259	67.304322	33.210864	50.594615	2181.808564	113.520793	11.930620	1.813388	9.693536	-45.000000	-38.993423	45.000000	-45.000000	97.728558	268.336751	135.949242	-180.000000	1091.878113	45.802677	4.353158	-23.234034	
3.2200	39.443925	8.529302	10.437206	-237.351422	844.354133	5.533503	11.863451	39.513073	37.522143	45.000000	-30.376260	2069.835769	67.230274	33.185745	50.465122	2181.804443	113.505674	11.991796	1.758894	9.662210	-45.000000	-38.917462	45.000000	-45.000000	97.629424	268.357530	135.889541	-180.000000	1091.871234	45.472043	4.410848	-23.209248	
3.2300	39.474626	8.579794	10.515686	-236.080247	843.821025	5.484222	11.875595	39.564421	37.693856	45.000000	-30.167238	2069.778963	67.158002	33.167824	50.316844	2181.800174	113.423343	12.061333	1.699288	9.624686	-45.000000	-38.858623	45.000000	-45.000000	97.524025	268.392251	135.818568	-180.000000	1091.871888	45.101811	4.478491	-23.185244	
3.2400	39.504340	8.646315	10.606482	-234.699890	843.237614	5.433723	11.888011	39.619922	37.843673	45.000000	-29.948431	2069.726834	67.082120	33.168770	50.151670	2181.786201	113.255236	12.151208	1.632680	9.591178	-45.000000	-38.801453	45.000000	-45.000000	97.403003	268.430382	135.747651	-180.000000	1091.874030	44.690322	4.553945	-23.157225	
3.2500	39.524937	8.746726	10.708424	-233.207310	842.598974	5.382128	11.884727	39.671345	37.936466	45.000000	-29.709749	2069.708068	67.021472	33.170142	49.951173	2181.770341	112.982509	12.253733	1.560548	9.562331	-45.000000	-38.777366	45.000000	-45.000000	97.279463	268.474298	135.668456	-180.000000	1091.887314	44.239975	4.641651	-23.131464	
3.2600	39.550385	8.848359	10.819880	-231.599432	841.899036	5.329377	11.884332	39.727650	38.044851	45.000000	-29.473134	2069.687026	66.955843	33.181912	49.723043	2181.735698	112.579855	12.382412	1.483288	9.536964	-45.000000	-38.752856	45.000000	-45.000000	97.143462	268.506892	135.587427	-180.000000	1091.894165	43.748392	4.741136	-23.101746	
3.2700	39.569490	8.974448	10.952129	-229.873170	841.131121	5.275266	11.876301	39.779835	38.140425	45.000000	-29.233324	2069.689546	66.899657	33.177994	49.454524	2181.695360	112.022128	12.532135	1.400852	9.512617	-45.000000	-38.745363	45.000000	-45.000000	97.000741	268.533937	135.508942	-180.000000	1091.905252	43.216557	4.855272	-23.072488	
3.2800	39.590232	9.103160	11.095681	-228.025064	840.288276	5.219627	11.887109	39.843149	38.252720	45.000000	-29.000736	2069.683970	66.829173	33.191496	49.157504	2181.627098	111.273034	12.717558	1.316255	9.482275	-45.000000	-38.729555	45.000000	-45.000000	96.837893	268.554225	135.431032	-180.000000	1091.900847	42.641174	4.982556	-23.035816	
3.2900	39.605195	9.252370	11.259690	-226.051902	839.363951	5.162282	11.898454	39.906520	38.359454	44.999999	-28.764613	2069.690231	66.755217	33.196805	48.815312	2181.540604	110.297794	12.934144	1.232226	9.448467	-45.000000	-38.716534	45.000000	-45.000000	96.662658	268.567156	135.355763	-180.000000	1091.895800	42.022227	5.125429	-22.996881	
3.3000	39.626315	9.390989	11.423947	-223.951536	838.352537	5.102997	11.958692	39.994494	38.495251	44.999999	-28.544410	2069.671098	66.655499	33.238973	48.458889	2181.412904	109.032712	13.201649	1.152319	9.387859	-45.000000	-38.684899	45.000000	-45.000000	96.454367	268.571050	135.286738	-180.000000	1091.878322	41.350592	5.280929	-22.949520	
3.3100	39.645240	9.541360	11.603288	-221.724059	837.249997	5.041219	12.029825	40.088880	38.631719	44.999998	-28.324281	2069.654046	66.544070	33.284124	48.065878	2181.251748	107.428336	13.512842	1.084319	9.319399	-45.000000	-38.649210	45.000000	-45.000000	96.227500	268.562661	135.222469	-180.000000	1091.856238	40.627314	5.452996	-22.897382	
3.3200	39.669316	9.684329	11.783956	-219.371486	836.053717	4.976239	12.145700	40.205373	38.791390	44.999997	-28.117263	2069.616387	66.411474	33.357436	47.662128	2181.039108	105.409443	13.879863	1.037385	9.224597	-45.000000	-38.595882	45.000000	-45.000000	95.968507	268.543803	135.163742	-180.000000	1091.821621	39.847715	5.639470	-22.836151	
3.3300	39.683541	9.852649	11.991756	-216.897658	834.762524	4.907274	12.231191	40.307037	38.934582	44.999994	-27.895354	2069.608156	66.281370	33.395522	47.214745	2180.788974	102.941366	14.279892	1.026703	9.142360	-45.000000	-38.551038	45.000000	-45.000000	95.709299	268.510948	135.100631	-180.000000	1091.778434	39.027696	5.848047	-22.771118	
3.3400	39.699329	10.016816	12.205806	-214.306646	833.376002	4.833986	12.358922	40.424948	39.095214	44.999990	-27.683575	2069.590447	66.137786	33.442891	46.780444	2180.480491	99.917031	14.727724	1.067630	9.033298	-45.000000	-38.492802	45.000000	-45.000000	95.424379	268.466947	135.043821	-180.000000	1091.727412	38.162537	6.070188	-22.697470	
3.3500	39.705980	10.197404	12.443131	-211.601675	831.894234	4.756772	12.470073	40.533994	39.241609	44.999982	-27.461187	2069.596990	65.991299	33.463085	46.349816	2180.109835	96.220411	15.207869	1.187198	8.934029	-45.000000	-38.436578	45.000000	-45.000000	95.134583	268.411589	134.985001	-180.000000	1091.662935	37.263604	6.311109	-22.615921	
3.3600	39.712816	10.368807	12.687294	-208.783561	830.317225	4.677236	12.636236	40.665583	39.406428	44.999967	-27.243969	2069.595837	65.823500	33.483358	45.982488	2179.650696	91.642801	15.731958	1.411496	8.800664	-45.000000	-38.362803	45.000000	-45.000000	94.815295	268.343225	134.941257	-180.000000	1091.589739	36.320468	6.562806	-22.522494	
3.3700	39.710042	10.550652	12.949846	-205.851598	828.645476	4.597863	12.777259	40.785368	39.554936	44.999941	-27.007790	2069.624460	65.638704	33.462544	45.689332	2179.071986	85.783579	16.277555	1.801468	8.682702	-45.000000	-38.296628	45.000000	-45.000000	94.494372	268.258571	134.895962	-180.000000	1091.498782	35.328635	6.838450	-22.418449	
